# xmcd
#
# Track frame offsets:
#	150
#	16703
#	37661
#	58056
#	75375
#	92355
#	111126
#	133454
#	154572
#	167039
#	185146
#	197765
#	214709
#
# Disc length: 3077 seconds
#
# Revision: 0
# Processed by: cddbd v1.5.2PL0 Copyright (c) Steve Scherf et al.
# Submitted via: EasyCDDAExtractor 9.0.0.1
#
DISCID=a00c030d
DTITLE=Boxcars
DYEAR=2007
DGENRE=Country
TTITLE0=Retreat
TTITLE1=Gone
TTITLE2=Can't Let Her Go
TTITLE3=Beacon In The Night
TTITLE4=Home
TTITLE5=My Place
TTITLE6=In The Middle
TTITLE7=Love Is Never Caged
TTITLE8=Drink Tonight
TTITLE9=Song For  You
TTITLE10=Take Back
TTITLE11=Ryan's Song
TTITLE12=Buckle Bunny
EXTD=
EXTT0=
EXTT1=
EXTT2=
EXTT3=
EXTT4=
EXTT5=
EXTT6=
EXTT7=
EXTT8=
EXTT9=
EXTT10=
EXTT11=
EXTT12=
PLAYORDER=
